<svg xmlns="http://www.w3.org/2000/svg" viewBox="0 0 512 512"><path fill="#00e676" d="M0 0h512v512H0z"/><path d="M453.9 132H426.7v-9.2a8 8 0 0 0-5.8-8c-18.8-5-38.2-7.4-57.7-7.4-32 0-75.6 7.2-107.8 40-32-33-76-40-107.9-40-19.4 0-38.8 2.5-57.6 7.4a8 8 0 0 0-5.8 8v9.2h-27a8 8 0 0 0-8 8v255.5a8 8 0 0 0 12 7c.8-.4 80.8-44.2 192.4-16h2a8 8 0 0 0 1.9 0c112-28.4 192 15.3 192.5 16a8 8 0 0 0 12-6.9V140.1a8 8 0 0 0-8-8zM65 382.9V148.1h19.2v200.6a8 8 0 0 0 9.2 8c16.5-2.5 33.2-3.8 50-4 23.1-.4 46.2 3.1 68.3 10.3-49.8-6-100.3.8-146.7 19.8zm78.4-46c-14.6 0-29.1 1-43.6 2.8V129.1c15.6-3.4 31.5-5.2 47.5-5.3 29.9 0 71.2 7 99.8 39.2l.3 199.3c-16.7-10.9-49.2-25.5-104-25.5zm120-173.8c28.6-32 69.9-39.2 99.8-39.2 16 0 31.9 1.9 47.4 5.3v210.5a351.9 351.9 0 0 0-43.2-2.9c-54.6 0-87.2 14.7-104 25.5V163zm182.3 219.8c-46.5-19-97.1-25.8-147-19.8a208 208 0 0 1 68.7-10.3 350 350 0 0 1 50.3 4 8 8 0 0 0 9.2-8V148H446l-.3 234.7z"/></svg>
